<?xml version="1.0" encoding="UTF-8"?>
<svg xmlns="http://www.w3.org/2000/svg" xmlns:xlink="http://www.w3.org/1999/xlink" width="480pt" height="480pt" viewBox="0 0 480 480" version="1.1">
<g id="surface7808442">
<path style=" stroke:none;fill-rule:nonzero;fill:rgb(20%,20%,20%);fill-opacity:1;" d="M 360 181.398438 L 360 420 L 350 420 L 330 400 L 330 229.101562 Z M 360 181.398438 "/>
<path style=" stroke:none;fill-rule:nonzero;fill:rgb(40%,40%,40%);fill-opacity:1;" d="M 430 70 C 430 70 410 320 360 420 L 350 420 C 350 420 348.800781 320 335 245 L 330 229.101562 L 360 181.398438 Z M 120 230 L 140 230 L 140 240 L 150 400 C 150 400 130 420 70 420 C 60 420 50 420 50 420 Z M 120 230 "/>
<path style=" stroke:none;fill-rule:nonzero;fill:rgb(20%,20%,20%);fill-opacity:1;" d="M 350 420 C 350 420 412.5 243.75 430 70 L 430 420 Z M 50 70 L 50 420 L 140 240 L 140 70 Z M 50 70 "/>
<path style=" stroke:none;fill-rule:nonzero;fill:rgb(0%,0%,0%);fill-opacity:1;" d="M 280 350 L 430 70 L 315.050781 70 L 200 350 Z M 280 350 "/>
<path style=" stroke:none;fill-rule:nonzero;fill:rgb(0%,0%,0%);fill-opacity:1;" d="M 50 70 L 165 60 L 280 350 L 200 350 L 140 240 Z M 50 70 "/>
</g>
</svg>
