<?xml version="1.0" encoding="UTF-8"?>
<svg xmlns="http://www.w3.org/2000/svg" xmlns:xlink="http://www.w3.org/1999/xlink" width="500pt" height="500pt" viewBox="0 0 500 500" version="1.1">
<g id="surface7810664">
<path style=" stroke:none;fill-rule:nonzero;fill:rgb(0%,0%,0%);fill-opacity:1;" d="M 250 20 C 242.851562 20 235.703125 21.796875 229.335938 25.390625 L 60.898438 120.039062 C 48.007812 127.265625 40 140.820312 40 155.351562 L 40 344.648438 C 40 359.179688 48.007812 372.734375 60.898438 379.960938 L 229.335938 474.609375 C 235.703125 478.203125 242.851562 480 250 480 C 257.148438 480 264.296875 478.203125 270.664062 474.609375 L 439.101562 380 C 451.992188 372.734375 460 359.179688 460 344.648438 L 460 155.351562 C 460 140.820312 451.992188 127.265625 439.101562 120.039062 L 270.664062 25.390625 C 264.296875 21.796875 257.148438 20 250 20 Z M 250 130 C 287.8125 130 322.773438 147.539062 345.429688 177.382812 L 301.601562 202.773438 C 288.4375 188.359375 269.726562 180 250 180 C 211.40625 180 180 211.40625 180 250 C 180 288.59375 211.40625 320 250 320 C 269.726562 320 288.4375 311.640625 301.601562 297.226562 L 345.429688 322.617188 C 322.773438 352.460938 287.8125 370 250 370 C 183.828125 370 130 316.171875 130 250 C 130 183.828125 183.828125 130 250 130 Z M 350 200 L 370 200 L 370 220 L 390 220 L 390 200 L 410 200 L 410 220 L 430 220 L 430 240 L 410 240 L 410 260 L 430 260 L 430 280 L 410 280 L 410 300 L 390 300 L 390 280 L 370 280 L 370 300 L 350 300 L 350 280 L 330 280 L 330 260 L 350 260 L 350 240 L 330 240 L 330 220 L 350 220 Z M 370 240 L 370 260 L 390 260 L 390 240 Z M 370 240 "/>
</g>
</svg>
