<?xml version="1.0" encoding="UTF-8"?>
<svg xmlns="http://www.w3.org/2000/svg" xmlns:xlink="http://www.w3.org/1999/xlink" width="500pt" height="500pt" viewBox="0 0 500 500" version="1.1">
<g id="surface7810263">
<path style=" stroke:none;fill-rule:nonzero;fill:rgb(0%,0%,0%);fill-opacity:1;" d="M 440.820312 252.070312 L 469.023438 204.296875 C 470.15625 201.914062 470.3125 199.179688 469.453125 196.71875 L 413.59375 36.71875 C 411.875 31.835938 406.757812 29.0625 401.796875 30.273438 L 237.617188 70.273438 C 234.492188 71.054688 231.914062 73.28125 230.703125 76.289062 L 213.242188 120 L 160 120 C 157.226562 120 154.53125 121.171875 152.65625 123.203125 L 32.65625 253.203125 C 28.945312 257.226562 29.140625 263.476562 33.085938 267.226562 L 158.945312 387.226562 C 160.78125 389.023438 163.28125 390 165.820312 390 L 223.203125 390 L 240.703125 433.710938 C 241.992188 436.953125 244.882812 439.257812 248.28125 439.84375 L 422.890625 469.84375 C 423.4375 469.960938 424.023438 470 424.570312 470 C 429.21875 470 433.320312 466.796875 434.335938 462.148438 L 469.765625 299.84375 C 470.3125 297.34375 469.882812 294.726562 468.515625 292.5 Z M 213.242188 120 L 354.179688 94.179688 L 280 240 L 111.679688 240 Z M 223.242188 390 L 111.679688 280 L 280 280 L 367.5 411.679688 Z M 403.867188 388.984375 L 320 260 L 393.320312 114.179688 L 440.820312 252.109375 Z M 403.867188 388.984375 "/>
</g>
</svg>
